<mxfile host="Electron" modified="2023-12-15T02:37:29.886Z" agent="Mozilla/5.0 (Windows NT 10.0; Win64; x64) AppleWebKit/537.36 (KHTML, like Gecko) draw.io/22.1.2 Chrome/114.0.5735.289 Electron/25.9.4 Safari/537.36" etag="DeZG6VQtKpF5CLjgD2sO" version="22.1.2" type="device">
  <diagram name="第 1 页" id="8yH8RpOOOHhIopt0g7aK">
    <mxGraphModel dx="976" dy="676" grid="1" gridSize="10" guides="1" tooltips="1" connect="1" arrows="1" fold="1" page="1" pageScale="1" pageWidth="827" pageHeight="1169" math="0" shadow="0">
      <root>
        <mxCell id="0" />
        <mxCell id="1" parent="0" />
        <mxCell id="X8d5yDXBqYm5YVWak3wP-1" value="游戏初始化" style="swimlane;fontStyle=1;align=center;verticalAlign=top;childLayout=stackLayout;horizontal=1;startSize=26;horizontalStack=0;resizeParent=1;resizeParentMax=0;resizeLast=0;collapsible=1;marginBottom=0;whiteSpace=wrap;html=1;fontSize=14;" vertex="1" parent="1">
          <mxGeometry x="170" y="190" width="160" height="100" as="geometry">
            <mxRectangle x="170" y="190" width="100" height="30" as="alternateBounds" />
          </mxGeometry>
        </mxCell>
        <mxCell id="X8d5yDXBqYm5YVWak3wP-2" value="status = 1" style="text;strokeColor=none;fillColor=none;align=left;verticalAlign=top;spacingLeft=4;spacingRight=4;overflow=hidden;rotatable=0;points=[[0,0.5],[1,0.5]];portConstraint=eastwest;whiteSpace=wrap;html=1;fontSize=14;fontStyle=1" vertex="1" parent="X8d5yDXBqYm5YVWak3wP-1">
          <mxGeometry y="26" width="160" height="26" as="geometry" />
        </mxCell>
        <mxCell id="X8d5yDXBqYm5YVWak3wP-3" value="" style="line;strokeWidth=1;fillColor=none;align=left;verticalAlign=middle;spacingTop=-1;spacingLeft=3;spacingRight=3;rotatable=0;labelPosition=right;points=[];portConstraint=eastwest;strokeColor=inherit;fontSize=14;fontStyle=1" vertex="1" parent="X8d5yDXBqYm5YVWak3wP-1">
          <mxGeometry y="52" width="160" height="8" as="geometry" />
        </mxCell>
        <mxCell id="X8d5yDXBqYm5YVWak3wP-4" value="玩家登录进游戏、游戏开始初始化" style="text;strokeColor=none;fillColor=none;align=left;verticalAlign=top;spacingLeft=4;spacingRight=4;overflow=hidden;rotatable=0;points=[[0,0.5],[1,0.5]];portConstraint=eastwest;whiteSpace=wrap;html=1;fontSize=14;fontStyle=1" vertex="1" parent="X8d5yDXBqYm5YVWak3wP-1">
          <mxGeometry y="60" width="160" height="40" as="geometry" />
        </mxCell>
        <mxCell id="X8d5yDXBqYm5YVWak3wP-5" value="" style="ellipse;html=1;shape=startState;fillColor=#000000;strokeColor=#ff0000;fontSize=14;fontStyle=1" vertex="1" parent="1">
          <mxGeometry x="40" y="225" width="30" height="30" as="geometry" />
        </mxCell>
        <mxCell id="X8d5yDXBqYm5YVWak3wP-7" value="start()" style="text;html=1;align=center;verticalAlign=middle;resizable=0;points=[];autosize=1;strokeColor=none;fillColor=none;fontSize=14;fontStyle=1" vertex="1" parent="1">
          <mxGeometry x="75" y="208" width="60" height="30" as="geometry" />
        </mxCell>
        <mxCell id="X8d5yDXBqYm5YVWak3wP-8" value="游戏进行中" style="swimlane;fontStyle=1;align=center;verticalAlign=top;childLayout=stackLayout;horizontal=1;startSize=26;horizontalStack=0;resizeParent=1;resizeParentMax=0;resizeLast=0;collapsible=1;marginBottom=0;whiteSpace=wrap;html=1;fontSize=14;" vertex="1" parent="1">
          <mxGeometry x="430" y="190" width="160" height="100" as="geometry">
            <mxRectangle x="170" y="190" width="100" height="30" as="alternateBounds" />
          </mxGeometry>
        </mxCell>
        <mxCell id="X8d5yDXBqYm5YVWak3wP-9" value="status = 2" style="text;strokeColor=none;fillColor=none;align=left;verticalAlign=top;spacingLeft=4;spacingRight=4;overflow=hidden;rotatable=0;points=[[0,0.5],[1,0.5]];portConstraint=eastwest;whiteSpace=wrap;html=1;fontSize=14;fontStyle=1" vertex="1" parent="X8d5yDXBqYm5YVWak3wP-8">
          <mxGeometry y="26" width="160" height="26" as="geometry" />
        </mxCell>
        <mxCell id="X8d5yDXBqYm5YVWak3wP-10" value="" style="line;strokeWidth=1;fillColor=none;align=left;verticalAlign=middle;spacingTop=-1;spacingLeft=3;spacingRight=3;rotatable=0;labelPosition=right;points=[];portConstraint=eastwest;strokeColor=inherit;fontSize=14;fontStyle=1" vertex="1" parent="X8d5yDXBqYm5YVWak3wP-8">
          <mxGeometry y="52" width="160" height="8" as="geometry" />
        </mxCell>
        <mxCell id="X8d5yDXBqYm5YVWak3wP-11" value="玩家游玩游戏主体" style="text;strokeColor=none;fillColor=none;align=left;verticalAlign=top;spacingLeft=4;spacingRight=4;overflow=hidden;rotatable=0;points=[[0,0.5],[1,0.5]];portConstraint=eastwest;whiteSpace=wrap;html=1;fontSize=14;fontStyle=1" vertex="1" parent="X8d5yDXBqYm5YVWak3wP-8">
          <mxGeometry y="60" width="160" height="40" as="geometry" />
        </mxCell>
        <mxCell id="X8d5yDXBqYm5YVWak3wP-12" value="游戏结束" style="swimlane;fontStyle=1;align=center;verticalAlign=top;childLayout=stackLayout;horizontal=1;startSize=26;horizontalStack=0;resizeParent=1;resizeParentMax=0;resizeLast=0;collapsible=1;marginBottom=0;whiteSpace=wrap;html=1;fontSize=14;" vertex="1" parent="1">
          <mxGeometry x="690" y="190" width="160" height="100" as="geometry">
            <mxRectangle x="170" y="190" width="100" height="30" as="alternateBounds" />
          </mxGeometry>
        </mxCell>
        <mxCell id="X8d5yDXBqYm5YVWak3wP-13" value="status = 3" style="text;strokeColor=none;fillColor=none;align=left;verticalAlign=top;spacingLeft=4;spacingRight=4;overflow=hidden;rotatable=0;points=[[0,0.5],[1,0.5]];portConstraint=eastwest;whiteSpace=wrap;html=1;fontSize=14;fontStyle=1" vertex="1" parent="X8d5yDXBqYm5YVWak3wP-12">
          <mxGeometry y="26" width="160" height="26" as="geometry" />
        </mxCell>
        <mxCell id="X8d5yDXBqYm5YVWak3wP-14" value="" style="line;strokeWidth=1;fillColor=none;align=left;verticalAlign=middle;spacingTop=-1;spacingLeft=3;spacingRight=3;rotatable=0;labelPosition=right;points=[];portConstraint=eastwest;strokeColor=inherit;fontSize=14;fontStyle=1" vertex="1" parent="X8d5yDXBqYm5YVWak3wP-12">
          <mxGeometry y="52" width="160" height="8" as="geometry" />
        </mxCell>
        <mxCell id="X8d5yDXBqYm5YVWak3wP-15" value="游戏结束显示排行榜" style="text;strokeColor=none;fillColor=none;align=left;verticalAlign=top;spacingLeft=4;spacingRight=4;overflow=hidden;rotatable=0;points=[[0,0.5],[1,0.5]];portConstraint=eastwest;whiteSpace=wrap;html=1;fontSize=14;fontStyle=1" vertex="1" parent="X8d5yDXBqYm5YVWak3wP-12">
          <mxGeometry y="60" width="160" height="40" as="geometry" />
        </mxCell>
        <mxCell id="X8d5yDXBqYm5YVWak3wP-17" value="" style="endArrow=classic;html=1;rounded=0;exitX=1;exitY=0.5;exitDx=0;exitDy=0;entryX=0;entryY=0.5;entryDx=0;entryDy=0;" edge="1" parent="1">
          <mxGeometry width="50" height="50" relative="1" as="geometry">
            <mxPoint x="330" y="239.5" as="sourcePoint" />
            <mxPoint x="430" y="239.5" as="targetPoint" />
          </mxGeometry>
        </mxCell>
        <mxCell id="X8d5yDXBqYm5YVWak3wP-18" value="update()" style="text;html=1;align=center;verticalAlign=middle;resizable=0;points=[];autosize=1;strokeColor=none;fillColor=none;fontSize=14;fontStyle=1" vertex="1" parent="1">
          <mxGeometry x="339" y="208" width="80" height="30" as="geometry" />
        </mxCell>
        <mxCell id="X8d5yDXBqYm5YVWak3wP-19" value="" style="endArrow=classic;html=1;rounded=0;exitX=1;exitY=0.5;exitDx=0;exitDy=0;entryX=0;entryY=0.5;entryDx=0;entryDy=0;" edge="1" parent="1">
          <mxGeometry width="50" height="50" relative="1" as="geometry">
            <mxPoint x="590" y="239.5" as="sourcePoint" />
            <mxPoint x="690" y="239.5" as="targetPoint" />
          </mxGeometry>
        </mxCell>
        <mxCell id="X8d5yDXBqYm5YVWak3wP-20" value="end()" style="text;html=1;align=center;verticalAlign=middle;resizable=0;points=[];autosize=1;strokeColor=none;fillColor=none;fontSize=14;fontStyle=1" vertex="1" parent="1">
          <mxGeometry x="615" y="208" width="60" height="30" as="geometry" />
        </mxCell>
        <mxCell id="X8d5yDXBqYm5YVWak3wP-21" value="游戏暂停" style="swimlane;fontStyle=1;align=center;verticalAlign=top;childLayout=stackLayout;horizontal=1;startSize=26;horizontalStack=0;resizeParent=1;resizeParentMax=0;resizeLast=0;collapsible=1;marginBottom=0;whiteSpace=wrap;html=1;fontSize=14;" vertex="1" parent="1">
          <mxGeometry x="430" y="400" width="160" height="100" as="geometry">
            <mxRectangle x="170" y="190" width="100" height="30" as="alternateBounds" />
          </mxGeometry>
        </mxCell>
        <mxCell id="X8d5yDXBqYm5YVWak3wP-22" value="status = 0" style="text;strokeColor=none;fillColor=none;align=left;verticalAlign=top;spacingLeft=4;spacingRight=4;overflow=hidden;rotatable=0;points=[[0,0.5],[1,0.5]];portConstraint=eastwest;whiteSpace=wrap;html=1;fontSize=14;fontStyle=1" vertex="1" parent="X8d5yDXBqYm5YVWak3wP-21">
          <mxGeometry y="26" width="160" height="26" as="geometry" />
        </mxCell>
        <mxCell id="X8d5yDXBqYm5YVWak3wP-23" value="" style="line;strokeWidth=1;fillColor=none;align=left;verticalAlign=middle;spacingTop=-1;spacingLeft=3;spacingRight=3;rotatable=0;labelPosition=right;points=[];portConstraint=eastwest;strokeColor=inherit;fontSize=14;fontStyle=1" vertex="1" parent="X8d5yDXBqYm5YVWak3wP-21">
          <mxGeometry y="52" width="160" height="8" as="geometry" />
        </mxCell>
        <mxCell id="X8d5yDXBqYm5YVWak3wP-24" value="游戏暂停、显示相关信息" style="text;strokeColor=none;fillColor=none;align=left;verticalAlign=top;spacingLeft=4;spacingRight=4;overflow=hidden;rotatable=0;points=[[0,0.5],[1,0.5]];portConstraint=eastwest;whiteSpace=wrap;html=1;fontSize=14;fontStyle=1" vertex="1" parent="X8d5yDXBqYm5YVWak3wP-21">
          <mxGeometry y="60" width="160" height="40" as="geometry" />
        </mxCell>
        <mxCell id="X8d5yDXBqYm5YVWak3wP-25" value="" style="ellipse;html=1;shape=endState;fillColor=#000000;strokeColor=#ff0000;fontSize=14;fontStyle=1" vertex="1" parent="1">
          <mxGeometry x="970" y="225" width="30" height="30" as="geometry" />
        </mxCell>
        <mxCell id="X8d5yDXBqYm5YVWak3wP-26" value="" style="endArrow=classic;html=1;rounded=0;exitX=0.994;exitY=0.942;exitDx=0;exitDy=0;exitPerimeter=0;entryX=0;entryY=0.5;entryDx=0;entryDy=0;" edge="1" parent="1" source="X8d5yDXBqYm5YVWak3wP-13" target="X8d5yDXBqYm5YVWak3wP-25">
          <mxGeometry width="50" height="50" relative="1" as="geometry">
            <mxPoint x="860" y="240" as="sourcePoint" />
            <mxPoint x="910" y="240" as="targetPoint" />
          </mxGeometry>
        </mxCell>
        <mxCell id="X8d5yDXBqYm5YVWak3wP-27" value="玩家退出游戏" style="text;html=1;align=center;verticalAlign=middle;resizable=0;points=[];autosize=1;strokeColor=none;fillColor=none;fontSize=14;fontStyle=1" vertex="1" parent="1">
          <mxGeometry x="865" y="208" width="110" height="30" as="geometry" />
        </mxCell>
        <mxCell id="X8d5yDXBqYm5YVWak3wP-28" value="" style="endArrow=classic;html=1;rounded=0;exitX=1;exitY=0.5;exitDx=0;exitDy=0;entryX=0;entryY=0.5;entryDx=0;entryDy=0;" edge="1" parent="1">
          <mxGeometry width="50" height="50" relative="1" as="geometry">
            <mxPoint x="70" y="239.5" as="sourcePoint" />
            <mxPoint x="170" y="239.5" as="targetPoint" />
          </mxGeometry>
        </mxCell>
        <mxCell id="X8d5yDXBqYm5YVWak3wP-29" value="" style="endArrow=classic;html=1;rounded=0;exitX=0.5;exitY=1.05;exitDx=0;exitDy=0;entryX=0.5;entryY=0;entryDx=0;entryDy=0;exitPerimeter=0;" edge="1" parent="1">
          <mxGeometry width="50" height="50" relative="1" as="geometry">
            <mxPoint x="470" y="292" as="sourcePoint" />
            <mxPoint x="470" y="400" as="targetPoint" />
          </mxGeometry>
        </mxCell>
        <mxCell id="X8d5yDXBqYm5YVWak3wP-31" value="" style="endArrow=classic;html=1;rounded=0;exitX=0.75;exitY=0;exitDx=0;exitDy=0;" edge="1" parent="1" source="X8d5yDXBqYm5YVWak3wP-21">
          <mxGeometry width="50" height="50" relative="1" as="geometry">
            <mxPoint x="480" y="302" as="sourcePoint" />
            <mxPoint x="550" y="290" as="targetPoint" />
          </mxGeometry>
        </mxCell>
        <mxCell id="X8d5yDXBqYm5YVWak3wP-32" value="暂停游戏&lt;br style=&quot;font-size: 14px;&quot;&gt;pause（）" style="text;html=1;align=center;verticalAlign=middle;resizable=0;points=[];autosize=1;strokeColor=none;fillColor=none;fontSize=14;fontStyle=1" vertex="1" parent="1">
          <mxGeometry x="395" y="330" width="90" height="50" as="geometry" />
        </mxCell>
        <mxCell id="X8d5yDXBqYm5YVWak3wP-33" value="重新开始游戏&lt;br style=&quot;font-size: 14px;&quot;&gt;update()" style="text;html=1;align=center;verticalAlign=middle;resizable=0;points=[];autosize=1;strokeColor=none;fillColor=none;fontSize=14;fontStyle=1" vertex="1" parent="1">
          <mxGeometry x="545" y="330" width="110" height="50" as="geometry" />
        </mxCell>
        <mxCell id="X8d5yDXBqYm5YVWak3wP-34" value="" style="endArrow=classic;html=1;rounded=0;exitX=1;exitY=0.5;exitDx=0;exitDy=0;entryX=0.5;entryY=1;entryDx=0;entryDy=0;" edge="1" parent="1" source="X8d5yDXBqYm5YVWak3wP-22" target="X8d5yDXBqYm5YVWak3wP-25">
          <mxGeometry width="50" height="50" relative="1" as="geometry">
            <mxPoint x="560" y="410" as="sourcePoint" />
            <mxPoint x="560" y="300" as="targetPoint" />
            <Array as="points">
              <mxPoint x="985" y="439" />
            </Array>
          </mxGeometry>
        </mxCell>
        <mxCell id="X8d5yDXBqYm5YVWak3wP-36" value="退出游戏&lt;br style=&quot;font-size: 14px;&quot;&gt;quit()" style="text;html=1;align=center;verticalAlign=middle;resizable=0;points=[];autosize=1;strokeColor=none;fillColor=none;fontSize=14;fontStyle=1" vertex="1" parent="1">
          <mxGeometry x="715" y="400" width="80" height="50" as="geometry" />
        </mxCell>
        <mxCell id="X8d5yDXBqYm5YVWak3wP-37" value="" style="endArrow=classic;html=1;rounded=0;exitX=0.55;exitY=-0.01;exitDx=0;exitDy=0;exitPerimeter=0;entryX=0.5;entryY=0;entryDx=0;entryDy=0;" edge="1" parent="1" source="X8d5yDXBqYm5YVWak3wP-8" target="X8d5yDXBqYm5YVWak3wP-25">
          <mxGeometry width="50" height="50" relative="1" as="geometry">
            <mxPoint x="560" y="410" as="sourcePoint" />
            <mxPoint x="560" y="300" as="targetPoint" />
            <Array as="points">
              <mxPoint x="518" y="80" />
              <mxPoint x="985" y="80" />
            </Array>
          </mxGeometry>
        </mxCell>
        <mxCell id="X8d5yDXBqYm5YVWak3wP-38" value="" style="endArrow=classic;html=1;rounded=0;exitX=0.5;exitY=0;exitDx=0;exitDy=0;entryX=0;entryY=0;entryDx=0;entryDy=0;" edge="1" parent="1" source="X8d5yDXBqYm5YVWak3wP-12" target="X8d5yDXBqYm5YVWak3wP-25">
          <mxGeometry width="50" height="50" relative="1" as="geometry">
            <mxPoint x="560" y="410" as="sourcePoint" />
            <mxPoint x="560" y="300" as="targetPoint" />
            <Array as="points">
              <mxPoint x="770" y="150" />
              <mxPoint x="974" y="150" />
            </Array>
          </mxGeometry>
        </mxCell>
        <mxCell id="X8d5yDXBqYm5YVWak3wP-39" value="退出游戏&lt;br style=&quot;font-size: 14px;&quot;&gt;quit()" style="text;html=1;align=center;verticalAlign=middle;resizable=0;points=[];autosize=1;strokeColor=none;fillColor=none;fontSize=14;fontStyle=1" vertex="1" parent="1">
          <mxGeometry x="575" y="35" width="80" height="50" as="geometry" />
        </mxCell>
        <mxCell id="X8d5yDXBqYm5YVWak3wP-40" value="退出游戏&lt;br style=&quot;font-size: 14px;&quot;&gt;quit()" style="text;html=1;align=center;verticalAlign=middle;resizable=0;points=[];autosize=1;strokeColor=none;fillColor=none;fontSize=14;fontStyle=1" vertex="1" parent="1">
          <mxGeometry x="855" y="105" width="80" height="50" as="geometry" />
        </mxCell>
      </root>
    </mxGraphModel>
  </diagram>
</mxfile>
